<svg width="31" height="31" viewBox="0 0 31 31" fill="none" xmlns="http://www.w3.org/2000/svg">
<path fill-rule="evenodd" clip-rule="evenodd" d="M13.2109 22.1549L16.0536 16.4686L24.5849 16.4679L13.2109 22.1549ZM24.5849 14.3015L16.0544 14.3015L13.2109 8.61448L24.5849 14.3015ZM29.9716 16.1032C30.039 16.0282 30.095 15.9462 30.1379 15.8558C30.1539 15.8244 30.1685 15.793 30.1808 15.7593C30.226 15.6405 30.2566 15.5165 30.2566 15.3847C30.2566 15.2529 30.226 15.1288 30.18 15.0093C30.1685 14.9764 30.1547 14.9458 30.1386 14.9144C30.0942 14.8224 30.0383 14.7389 29.9693 14.6623C29.9532 14.6447 29.9418 14.6256 29.9241 14.6079C29.846 14.5329 29.7579 14.4662 29.6583 14.4157L11.2735 5.22327C10.8553 5.01491 10.3528 5.09611 10.0226 5.42627C9.69246 5.75643 9.61049 6.25972 9.81962 6.6772L14.173 15.3847L9.81962 24.0937C9.61126 24.5104 9.69246 25.013 10.0226 25.3431C10.3528 25.6733 10.8553 25.7545 11.272 25.5461L29.6568 16.3537C29.7571 16.3024 29.8452 16.2373 29.9226 16.1615C29.9418 16.1438 29.954 16.1224 29.9716 16.1032Z" fill="#9AADDE"/>
</svg>
